<svg xmlns="http://www.w3.org/2000/svg" width="64" height="64" viewBox="0 0 64 64" fill="none">
  <rect width="64" height="64" rx="18" fill="#0A0A0A"/>
  <path d="M16 47L25.456 17H32.273L41.728 47H34.912L33.12 40.773H24.608L22.816 47H16ZM25.888 35.867H31.84L28.864 25.424L25.888 35.867Z" fill="white"/>
  <path d="M48 45.699C46.251 46.566 44.117 47 41.6 47C37.72 47 34.659 45.629 32.416 42.888C30.173 40.117 29.052 36.237 29.052 31.248C29.052 26.11 30.259 22.038 32.672 19.032C35.085 16.026 38.253 14.523 42.176 14.523C44.224 14.523 46.059 14.907 47.68 15.675V21.243C45.973 20.091 44.181 19.515 42.304 19.515C39.744 19.515 37.675 20.454 36.096 22.331C34.517 24.179 33.728 26.73 33.728 29.984C33.728 33.139 34.475 35.633 35.968 37.467C37.461 39.301 39.445 40.219 41.92 40.219C43.84 40.219 45.867 39.6 48 38.363V45.699Z" fill="white"/>
</svg>
