<svg width="1828" height="513" viewBox="0 0 1828 513" fill="none" xmlns="http://www.w3.org/2000/svg">
<path d="M818.582 0C879.166 6.60368e-05 930.001 39.6929 952.285 126.739L878.47 155.987C866.631 103.063 848.526 69.637 815.797 69.6367C774.711 69.6367 749.641 129.525 749.641 256.961C749.641 383.004 774.711 442.893 815.797 442.893C848.526 442.892 867.328 408.771 878.47 355.847L951.589 385.094C932.09 469.355 883.345 512.53 817.886 512.53C731.625 512.53 675.782 440.082 664.648 308H734V217H663.796C672.436 78.211 727.415 0 818.582 0ZM1757.29 136.489H1825.54V204.037H1757.29V402.504C1757.29 430.359 1767.04 443.59 1792.81 443.59C1808.82 443.59 1819.96 440.108 1827.62 435.93V504.174C1818.57 507.656 1797.68 512.53 1774 512.53C1707.15 512.53 1673.03 470.748 1673.03 403.2V204.037H1636.82V136.489H1673.03V66.8516H1757.29V136.489ZM1299.4 129.524C1379.49 129.524 1417.79 168.521 1417.79 253.479V428.965C1417.79 454.731 1419.18 483.282 1421.27 505.566H1346.06C1344.67 497.906 1343.28 484.675 1342.58 470.747H1339.79C1324.47 494.424 1300.8 512.529 1262.5 512.529C1205.39 512.529 1168.49 469.355 1168.49 402.503C1168.49 324.509 1214.45 283.423 1305.67 283.423H1333.53V253.479C1333.53 217.267 1323.78 197.072 1294.53 197.072C1265.98 197.072 1251.35 220.749 1241.61 261.139L1172.67 233.284C1189.38 169.218 1226.98 129.525 1299.4 129.524ZM309.886 505.567H221.446L201.251 388.576H98.1885L77.2969 505.567H0L98.8848 6.96387H212.394L309.886 505.567ZM431.675 217H367V308H431.675V505.567H346.021V6.96387H431.675V217ZM1586.38 0C1617.02 0.000102018 1645.57 10.4454 1662.98 34.8184L1623.28 82.1719C1617.71 73.8155 1609.36 68.2442 1595.43 68.2441C1576.63 68.2441 1566.88 83.5647 1566.88 114.205V136.488H1628.16V204.037H1566.88V505.566H1481.92V204.037H1446.4V136.488H1481.92V114.205C1481.92 45.9605 1516.74 0 1586.38 0ZM1150.89 210.303C1114.68 208.214 1082.65 224.927 1072.2 257.656V505.565H988.638V136.487H1061.76L1065.24 184.537H1068.72C1084.04 149.022 1109.81 130.22 1150.89 128.131V210.303ZM1307.76 344.008C1267.37 344.008 1252.05 362.113 1252.05 394.146C1252.05 426.179 1264.59 444.981 1288.96 444.981C1316.12 444.981 1330.74 416.43 1333.53 396.932V344.008H1307.76ZM110.723 316.85H188.717L150.416 94.707L110.723 316.85ZM663.796 217C662.999 229.809 662.595 243.134 662.595 256.961C662.595 274.848 663.289 291.869 664.648 308H431.675V217H663.796Z" fill="white"/>
</svg>
