<svg width="874" height="100" viewBox="0 0 874 100" fill="none" xmlns="http://www.w3.org/2000/svg">
<path d="M598.701 71.3426L610.103 32.4116H621.916L605.79 81.3051C604.899 83.9756 603.94 86.4412 602.913 88.701C601.886 90.9605 600.654 92.9123 599.216 94.5557C597.778 96.2677 596.03 97.603 593.976 98.5617C591.99 99.5204 589.559 100 586.683 100C585.451 100 584.424 99.8979 583.602 99.6925C582.78 99.5555 582.095 99.3834 581.548 99.178C580.932 98.9042 580.418 98.5964 580.008 98.2542V88.2905C581.377 89.6598 583.226 90.345 585.554 90.345C587.266 90.345 588.635 89.9675 589.663 89.2143C590.69 88.5295 591.546 87.5714 592.23 86.339L574.46 32.4116H587.301L598.701 71.3426Z" fill="#DCE5BB"/>
<path fill-rule="evenodd" clip-rule="evenodd" d="M307.468 31.3849C310.344 31.3849 312.981 31.9666 315.377 33.1307C317.774 34.2948 319.829 36.041 321.541 38.3692C323.253 40.629 324.588 43.4375 325.547 46.7929C326.505 50.0796 326.984 53.8799 326.984 58.1937C326.984 62.5078 326.471 66.3431 325.444 69.6985C324.485 73.0539 323.115 75.8957 321.335 78.2239C319.623 80.4836 317.5 82.1954 314.967 83.3596C312.502 84.5237 309.796 85.1065 306.852 85.1065C301.442 85.1065 297.162 82.7432 294.012 78.0181V98.9734H281.789V32.4116H293.088L293.704 39.0883C295.279 36.5548 297.231 34.6375 299.559 33.3365C301.956 32.0354 304.592 31.3849 307.468 31.3849ZM304.387 41.0399C300.963 41.0399 298.394 42.341 296.682 44.943C294.97 47.5452 294.08 51.7235 294.012 57.4757V58.2966C294.012 64.3225 294.8 68.7051 296.375 71.4443C298.018 74.1149 300.484 75.4503 303.771 75.4503C307.331 75.4502 309.968 74.0815 311.68 71.3426C313.46 68.6034 314.351 64.2198 314.351 58.1937C314.351 52.1678 313.528 47.8194 311.885 45.1489C310.241 42.41 307.742 41.04 304.387 41.0399Z" fill="#DCE5BB"/>
<path fill-rule="evenodd" clip-rule="evenodd" d="M48.2146 0C74.8428 0.000145843 96.4304 21.5876 96.4304 48.2158C96.43 74.8436 74.8425 96.4302 48.2146 96.4304C21.5868 96.4301 0.00043787 74.8436 0 48.2158C0 21.5876 21.5865 0.000247566 48.2146 0ZM50.4311 19.3348C35.6963 19.3349 27.9538 26.9101 27.9537 38.0652C27.9537 46.9725 32.1991 52.2173 39.7743 57.6283L26.6219 77.1926H37.5271L52.1793 55.2982L47.1016 51.8836C40.9415 47.7213 37.9436 44.4756 37.9434 37.4833C37.9434 31.323 42.2726 27.159 50.5139 27.1589H55.0085V77.1926H65.0833V19.3348H50.4311Z" fill="#DCE5BB"/>
<path fill-rule="evenodd" clip-rule="evenodd" d="M151.073 0C164.397 9.45364e-09 171.06 0.000737357 176.424 1.84749C186.29 5.24502 194.043 12.9976 197.44 22.8642C199.287 28.2281 199.288 34.8916 199.288 48.2158C199.288 61.5393 199.287 68.2024 197.44 73.5662C194.043 83.4326 186.29 91.1855 176.424 94.5829C171.06 96.4297 164.397 96.4304 151.073 96.4304C137.749 96.4304 131.086 96.4297 125.722 94.5829C115.855 91.1854 108.103 83.4325 104.705 73.5662C102.858 68.2024 102.858 61.5393 102.858 48.2158C102.858 34.8917 102.858 28.2281 104.705 22.8642C108.103 12.9977 115.855 5.24511 125.722 1.84749C131.086 0.000717721 137.749 3.30581e-09 151.073 0ZM149.377 44.5776L126.194 25.1257L124.015 27.723L146.85 46.8816L117.154 49.4802L117.449 52.8582L145.864 50.372L124.013 68.7073L126.193 71.3047L146.479 54.2811L135.371 78.1045L138.444 79.5368L147.104 60.9649L143.517 81.3063L146.856 81.8953L149.377 67.5967V82.1153H152.767V50.8699L181.096 64.0803L182.527 61.0087L154.453 47.9165L179.816 30.1584L177.871 27.3824L152.767 44.9596V14.088H149.377V44.5776Z" fill="#DCE5BB"/>
<path fill-rule="evenodd" clip-rule="evenodd" d="M845.537 11.6633C849.44 11.6633 853.104 12.4159 856.528 13.9224C859.952 15.3604 862.931 17.5863 865.464 20.5992C867.998 23.5437 869.984 27.3103 871.422 31.8982C872.928 36.4863 873.682 41.8967 873.682 48.1283C873.682 54.3596 872.928 59.8036 871.422 64.46C869.984 69.048 867.998 72.8833 865.464 75.9648C862.931 79.0461 859.952 81.3398 856.528 82.8462C853.104 84.3528 849.44 85.1065 845.537 85.1065C841.634 85.1065 837.97 84.3871 834.546 82.9491C831.123 81.4426 828.143 79.1825 825.609 76.1695C823.076 73.1565 821.09 69.3898 819.652 64.8704C818.214 60.2825 817.496 54.8728 817.496 48.6416C817.496 42.41 818.214 36.9996 819.652 32.4116C821.09 27.7553 823.076 23.8864 825.609 20.805C828.143 17.7235 831.123 15.429 834.546 13.9224C837.97 12.416 841.634 11.6634 845.537 11.6633ZM845.537 21.3183C843.277 21.3184 841.189 21.8324 839.272 22.8595C837.423 23.8866 835.813 25.5296 834.444 27.7893C833.074 29.9806 832.013 32.7891 831.26 36.213C830.506 39.6368 830.13 43.711 830.13 48.4358C830.13 53.1608 830.506 57.2358 831.26 60.6598C832.013 64.015 833.074 66.8226 834.444 69.0823C835.813 71.2736 837.423 72.8832 839.272 73.9104C841.189 74.9374 843.277 75.4503 845.537 75.4503C847.797 75.4503 849.851 74.9375 851.7 73.9104C853.618 72.8832 855.262 71.2736 856.631 69.0823C858.001 66.8226 859.062 64.015 859.815 60.6598C860.637 57.2358 861.048 53.1608 861.048 48.4358C861.048 43.7111 860.637 39.6368 859.815 36.213C859.062 32.7891 858.001 29.9806 856.631 27.7893C855.262 25.5296 853.618 23.8866 851.7 22.8595C849.851 21.8323 847.797 21.3183 845.537 21.3183Z" fill="#DCE5BB"/>
<path fill-rule="evenodd" clip-rule="evenodd" d="M354.463 31.5907C360.969 31.5907 365.796 32.8917 368.946 35.4939C372.165 38.096 373.774 42.5474 373.774 48.8474V71.4443C373.774 75.6898 373.98 79.9016 374.391 84.0787H362.475C362.27 83.5309 362.064 82.8802 361.859 82.1271C361.722 81.3741 361.619 80.6554 361.55 79.9709H361.037C359.873 81.2033 358.366 82.3325 356.518 83.3596C354.669 84.3182 351.964 84.7978 348.403 84.7978C343.678 84.7977 339.843 83.3944 336.899 80.5871C334.023 77.7795 332.584 73.7389 332.584 68.4661C332.584 63.1933 334.741 59.1182 339.055 56.2421C343.369 53.2976 350.217 51.8257 359.599 51.8256H361.55V48.9491C361.55 46.1419 360.866 44.19 359.497 43.0944C358.128 41.9302 355.97 41.3486 353.025 41.3486C351.45 41.3486 349.841 41.5196 348.198 41.8619C346.555 42.1358 344.979 42.5122 343.473 42.9915C342.035 43.4708 340.665 44.0192 339.364 44.6355C338.131 45.2517 337.104 45.868 336.283 46.4842V36.3159C338.132 35.2203 340.596 34.1578 343.677 33.1307C346.759 32.1035 350.355 31.5907 354.463 31.5907ZM359.805 60.5569C354.532 60.5569 350.765 61.1729 348.506 62.4055C346.246 63.5697 345.116 65.6244 345.116 68.569C345.116 70.7601 345.732 72.5409 346.964 73.9104C348.266 75.2115 350.218 75.8619 352.82 75.8619C355.011 75.8619 356.826 75.4844 358.263 74.7312C359.701 73.9095 360.797 72.917 361.55 71.753V60.5569H359.805Z" fill="#DCE5BB"/>
<path d="M271.555 84.0787H259.127V22.3462H236.94V84.0787H224.512V12.69H271.555V84.0787Z" fill="#DCE5BB"/>
<path d="M395.827 56.6537L413.084 32.4116H425.41L408.153 56.6537L427.772 84.0787H413.905L395.827 59.1186V84.0787H383.603V32.4116H395.827V56.6537Z" fill="#DCE5BB"/>
<path d="M471.36 42.0677H456.98V84.0787H444.756V42.0677H430.376V32.4116H471.36V42.0677Z" fill="#DCE5BB"/>
<path d="M490.41 64.46L509.104 32.4116H519.992V84.0787H508.18V52.1343L489.485 84.0787H478.598V32.4116H490.41V64.46Z" fill="#DCE5BB"/>
<path d="M542.481 56.6537L559.737 32.4116H572.063L554.806 56.6537L574.426 84.0787H560.558L542.481 59.1186V84.0787H530.257V32.4116H542.481V56.6537Z" fill="#DCE5BB"/>
<path d="M654.391 66.822L665.587 32.4116H682.331L682.536 84.0787H670.621V45.4576L658.09 84.0787H648.126L636.93 45.5593V84.0787H626.554V32.4116H644.324L654.391 66.822Z" fill="#DCE5BB"/>
<path fill-rule="evenodd" clip-rule="evenodd" d="M731.915 12.69C740.406 12.69 746.945 14.6417 751.533 18.5447C756.122 22.448 758.416 28.0294 758.416 35.2881C758.416 39.2597 757.765 42.7177 756.464 45.6622C755.232 48.5382 753.451 50.9349 751.123 52.8523C748.863 54.7696 746.09 56.2083 742.803 57.167C739.516 58.1257 735.852 58.6053 731.812 58.6053H725.751V84.0787H713.323V12.69H731.915ZM725.751 48.9491H731.915C736.229 48.9491 739.619 47.8535 742.084 45.6622C744.549 43.4708 745.782 40.0128 745.782 35.2881C745.782 30.7685 744.617 27.4816 742.289 25.4273C740.029 23.3732 736.709 22.3462 732.326 22.3462H725.751V48.9491Z" fill="#DCE5BB"/>
<path fill-rule="evenodd" clip-rule="evenodd" d="M786.026 12.69C789.723 12.69 793.079 13.1695 796.092 14.1282C799.174 15.0869 801.81 16.4912 804.001 18.3401C806.261 20.1889 808.007 22.4482 809.24 25.1186C810.472 27.7208 811.089 30.7002 811.089 34.0556C811.088 39.4651 809.685 43.8135 806.878 47.1004C804.07 50.3189 800.406 52.6134 795.886 53.983L813.349 84.0787H799.892L783.971 56.6537H778.013V84.0787H765.585V12.69H786.026ZM778.013 46.9975H784.896C789.278 46.9975 792.668 45.9018 795.064 43.7106C797.461 41.5193 798.66 38.3012 798.66 34.0556C798.66 29.9469 797.53 26.9675 795.27 25.1186C793.079 23.2698 789.723 22.3462 785.203 22.3462H778.013V46.9975Z" fill="#DCE5BB"/>
</svg>
